# xmcd CD database file
# Copyright (C) 1995-1998 Ti Kan
#
# Track frame offsets:
#	150
#	16999
#	35787
#	52486
#	67710
#	91820
#	105021
#	124457
#	141414
#	157086
#	180231
#	195879
#
# Disc length: 2768 seconds
#
# Revision: 1
# Processed by: cddbd v1.4PL0 Copyright (c) Steve Scherf et al.
# Submitted via: CDex 1.30Release
#
DISCID=9c0ace0c
DTITLE=Mark Wiggins - Droppin' The Reigns
DYEAR=2003
DGENRE=Country
TTITLE0=Me You In a Dream
TTITLE1=Back to My Roots
TTITLE2=Cry Me With a Smile
TTITLE3=When I Get Thru to Emmylou
TTITLE4=This Hurts the Both of Us
TTITLE5=Droppin' the Reigns
TTITLE6=Little Peices
TTITLE7=I Still Dream
TTITLE8=One More Time Coach Russell
TTITLE9=Too Old to Breakdance
TTITLE10=Innocence
TTITLE11=Talking to Jesus
EXTD=YEAR: 2003 ID3G:   2
EXTT0=
EXTT1=
EXTT2=
EXTT3=
EXTT4=
EXTT5=
EXTT6=
EXTT7=
EXTT8=
EXTT9=
EXTT10=
EXTT11=
PLAYORDER=
